name Walk10.mot
datacolumns 19
datarows 20
range 1.12500000 1.14400000
endheader

                time	   L_ground_force_vx	   L_ground_force_vy	   L_ground_force_vz	   L_ground_force_px	   L_ground_force_py	   L_ground_force_pz	   R_ground_force_vx	   R_ground_force_vy	   R_ground_force_vz	   R_ground_force_px	   R_ground_force_py	   R_ground_force_pz	   L_ground_torque_x	   L_ground_torque_y	   L_ground_torque_z	   R_ground_torque_x	   R_ground_torque_y	   R_ground_torque_z	
          1.12500000	         -3.43178614	         63.35665153	         -7.04737527	         -0.08752456	          0.00000000	         -0.00959979	         -0.00000000	          0.00000000	         -0.00000000	          0.00000000	          0.00000000	          0.00000000	          0.00000000	          0.18439470	          0.00000000	          0.00000000	         -0.00000000	          0.00000000	
          1.12600000	         -4.06659431	         68.56803191	         -7.58452853	         -0.09253539	          0.00000000	         -0.01014518	         -0.00000000	          0.00000000	         -0.00000000	          0.00000000	          0.00000000	          0.00000000	          0.00000000	          0.20331127	          0.00000000	          0.00000000	         -0.00000000	          0.00000000	
          1.12700000	         -4.74359740	         73.98050024	         -8.14027337	         -0.09762969	          0.00000000	         -0.01069936	         -0.00000000	          0.00000000	         -0.00000000	          0.00000000	          0.00000000	          0.00000000	          0.00000000	          0.22314601	          0.00000000	          0.00000000	         -0.00000000	          0.00000000	
          1.12800000	         -5.46392039	         79.59038964	         -8.71404223	         -0.10279417	          0.00000000	         -0.01126084	         -0.00000000	          0.00000000	         -0.00000000	          0.00000000	          0.00000000	          0.00000000	          0.00000000	          0.24390232	          0.00000000	          0.00000000	         -0.00000000	          0.00000000	
          1.12900000	         -6.22861393	         85.39287713	         -9.30514037	         -0.10801403	          0.00000000	         -0.01182798	         -0.00000000	          0.00000000	         -0.00000000	          0.00000000	          0.00000000	          0.00000000	          0.00000000	          0.26558011	          0.00000000	          0.00000000	         -0.00000000	          0.00000000	
          1.13000000	         -7.03864304	         91.38189614	         -9.91273694	         -0.11327287	          0.00000000	         -0.01239899	         -0.00000000	          0.00000000	         -0.00000000	          0.00000000	          0.00000000	          0.00000000	          0.00000000	          0.28817550	          0.00000000	          0.00000000	         -0.00000000	          0.00000000	
          1.13100000	         -7.89487517	         97.55004602	        -10.53585575	         -0.11855257	          0.00000000	         -0.01297184	         -0.00000000	          0.00000000	         -0.00000000	          0.00000000	          0.00000000	          0.00000000	          0.00000000	          0.31168042	          0.00000000	          0.00000000	         -0.00000000	          0.00000000	
          1.13200000	         -8.79806830	        103.88850693	        -11.17336786	         -0.12383352	          0.00000000	         -0.01354439	         -0.00000000	          0.00000000	         -0.00000000	          0.00000000	          0.00000000	          0.00000000	          0.00000000	          0.33608236	          0.00000000	          0.00000000	         -0.00000000	          0.00000000	
          1.13300000	         -9.74886094	        110.38698832	        -11.82399191	         -0.12909544	          0.00000000	         -0.01411443	         -0.00000000	          0.00000000	         -0.00000000	          0.00000000	          0.00000000	          0.00000000	          0.00000000	          0.36136411	          0.00000000	          0.00000000	         -0.00000000	          0.00000000	
          1.13400000	        -10.74776543	        117.03374158	        -12.48630472	         -0.13431880	          0.00000000	         -0.01467987	         -0.00000000	          0.00000000	         -0.00000000	          0.00000000	          0.00000000	          0.00000000	          0.00000000	          0.38750373	          0.00000000	          0.00000000	         -0.00000000	          0.00000000	
          1.13500000	        -11.79516283	        123.81564713	        -13.15875765	         -0.13948561	          0.00000000	         -0.01523890	         -0.00000000	          0.00000000	         -0.00000000	          0.00000000	          0.00000000	          0.00000000	          0.00000000	          0.41447460	          0.00000000	          0.00000000	         -0.00000000	          0.00000000	
          1.13600000	        -12.89129772	        130.71837677	        -13.83969385	         -0.14457963	          0.00000000	         -0.01578990	         -0.00000000	          0.00000000	         -0.00000000	          0.00000000	          0.00000000	          0.00000000	          0.00000000	          0.44224560	          0.00000000	          0.00000000	         -0.00000000	          0.00000000	
          1.13700000	        -14.03627113	        137.72663627	        -14.52736537	         -0.14958628	          0.00000000	         -0.01633153	         -0.00000000	          0.00000000	         -0.00000000	          0.00000000	          0.00000000	          0.00000000	          0.00000000	          0.47078134	          0.00000000	          0.00000000	         -0.00000000	          0.00000000	
          1.13800000	        -15.23003029	        144.82448693	        -15.21994984	         -0.15449250	          0.00000000	         -0.01686262	         -0.00000000	          0.00000000	         -0.00000000	         -0.00000000	          0.00000000	         -0.00000000	          0.00000000	          0.50004260	          0.00000000	          0.00000000	         -0.00000000	          0.00000000	
          1.13900000	        -16.47235390	        151.99573022	        -15.91556626	         -0.15928676	          0.00000000	         -0.01738218	         -0.00000000	          0.00000000	          0.00000000	         -0.00000000	          0.00000000	         -0.00000000	          0.00000000	          0.52998694	          0.00000000	          0.00000000	         -0.00000000	          0.00000000	
          1.14000000	        -17.76283292	        159.22432399	        -16.61229000	         -0.16395889	          0.00000000	         -0.01788939	         -0.00000000	          0.00000000	          0.00000000	         -0.00000000	          0.00000000	         -0.00000000	          0.00000000	          0.56056942	          0.00000000	          0.00000000	         -0.00000000	          0.00000000	
          1.14100000	        -19.10084851	        166.49478627	        -17.30816712	         -0.16850008	          0.00000000	         -0.01838357	         -0.00000000	          0.00000000	          0.00000000	         -0.00000000	          0.00000000	         -0.00000000	          0.00000000	          0.59174331	          0.00000000	          0.00000000	         -0.00000000	          0.00000000	
          1.14200000	        -20.48555015	        173.79254045	        -18.00122878	         -0.17290276	          0.00000000	         -0.01886417	         -0.00000000	          0.00000000	          0.00000000	         -0.00000000	          0.00000000	         -0.00000000	          0.00000000	          0.62346077	          0.00000000	          0.00000000	         -0.00000000	          0.00000000	
          1.14300000	        -21.91583737	        181.10416555	        -18.68950590	         -0.17716054	          0.00000000	         -0.01933076	         -0.00000000	          0.00000000	          0.00000000	         -0.00000000	          0.00000000	         -0.00000000	          0.00000000	          0.65567330	          0.00000000	          0.00000000	         -0.00000000	          0.00000000	
          1.14400000	        -23.39034822	        188.41753361	        -19.37104439	         -0.18126811	          0.00000000	         -0.01978301	         -0.00000000	          0.00000000	          0.00000000	         -0.00000000	          0.00000000	         -0.00000000	          0.00000000	          0.68833195	          0.00000000	          0.00000000	         -0.00000000	          0.00000000	
